<svg width="432" height="614" viewBox="0 0 432 614" fill="none" xmlns="http://www.w3.org/2000/svg">
<path fill-rule="evenodd" clip-rule="evenodd" d="M91 124H341V614H91V124ZM116 150H316V244H116V150ZM193 256C190.239 256 188 258.239 188 261V271C188 273.761 190.239 276 193 276H238C240.761 276 243 273.761 243 271V261C243 258.239 240.761 256 238 256H193Z" fill="#303030"/>
<path fill-rule="evenodd" clip-rule="evenodd" d="M432 29H0L43.5 69H44V94H34L44 125V565H34V573H44V614H91V573V565V133H341V565V573V614H388V573H398V565H388V125L398 94H388V69L432 29Z" fill="#303030"/>
<path fill-rule="evenodd" clip-rule="evenodd" d="M313 338C313 341.883 310.787 345.248 307.554 346.905L305.17 373.134C306.879 374.305 308 376.272 308 378.5V382.5C308 386.09 305.09 389 301.5 389C297.91 389 295 386.09 295 382.5V378.5C295 376.272 296.121 374.305 297.83 373.134L295.446 346.905C292.213 345.248 290 341.883 290 338V328.5C290 322.149 295.149 317 301.5 317C307.851 317 313 322.149 313 328.5L313 338Z" fill="white"/>
</svg>
