<svg width="250" height="582" viewBox="0 0 250 582" fill="none" xmlns="http://www.w3.org/2000/svg">
<path fill-rule="evenodd" clip-rule="evenodd" d="M0 89.8931C0 88.6354 0.134656 87.4263 0.490568 86.22C4.15717 73.7929 29.8168 0.5 125 0.5C220.183 0.5 245.843 73.7928 249.509 86.22C249.865 87.4263 250 88.6354 250 89.8931V582H0V89.8931ZM33 87C33 79.1207 35.3797 71.3185 40.0031 64.039C44.6265 56.7595 51.4032 50.1451 59.9462 44.5736C60.367 44.2992 60.7916 44.0275 61.2201 43.7587L97.7372 73.7839C96.0807 75.6715 94.6989 77.7253 93.6262 79.9022C92.5029 82.1816 91.7328 84.5671 91.3298 87L33 87ZM99.8322 71.6226L63.9461 42.1163C71.5925 37.6924 80.326 34.1247 89.7931 31.5672C100.339 28.7184 111.6 27.1758 123 27.0142V62L125.5 62C120.969 62 116.483 62.7501 112.297 64.2075C108.112 65.6649 104.308 67.801 101.105 70.4939C100.668 70.8609 100.244 71.2373 99.8322 71.6226ZM184.204 41.0741C177.01 37.1297 168.919 33.9207 160.207 31.5672C149.353 28.6352 137.741 27.0868 126 27.0035V62L125.5 62C130.031 62 134.517 62.7501 138.703 64.2075C142.888 65.6649 146.692 67.801 149.895 70.4939C150.356 70.8813 150.803 71.2791 151.236 71.6868L184.204 41.0741ZM186.934 42.6324L153.318 73.8473C154.95 75.7174 156.313 77.7496 157.374 79.9022C158.497 82.1816 159.267 84.5671 159.67 87L217 87C217 79.1207 214.62 71.3185 209.997 64.039C205.373 56.7595 198.597 50.1451 190.054 44.5736C189.036 43.91 187.996 43.2628 186.934 42.6324ZM153.786 81.6703C154.637 83.397 155.244 85.1848 155.605 87L125.5 87H125H95.3951C95.7559 85.1848 96.3633 83.397 97.2142 81.6703C98.687 78.6814 100.87 75.9166 103.679 73.5558C106.488 71.1942 109.859 69.292 113.613 67.9851C117.366 66.6782 121.407 66 125.5 66C129.593 66 133.634 66.6782 137.387 67.9851C141.141 69.292 144.512 71.1942 147.321 73.5559C150.13 75.9166 152.313 78.6814 153.786 81.6703ZM80 301C80 302.105 80.8954 303 82 303H169C170.105 303 171 302.105 171 301V290C171 288.895 170.105 288 169 288H82C80.8954 288 80 288.895 80 290V301Z" fill="#303030"/>
<rect x="206" y="340" width="15" height="35" rx="2" fill="white"/>
</svg>
