<svg width="250" height="564" viewBox="0 0 250 564" fill="none" xmlns="http://www.w3.org/2000/svg">
<path fill-rule="evenodd" clip-rule="evenodd" d="M250 125C250 91.8479 236.83 60.0537 213.388 36.6117C189.946 13.1696 158.152 2.50291e-06 125 0C91.8479 -2.50291e-06 60.0537 13.1696 36.6117 36.6116C13.1696 60.0537 5.00582e-06 91.8479 0 125V564H250V125ZM160 199V99H90V199H160Z" fill="#303030"/>
<rect x="121" y="67" width="8" height="134" fill="#303030"/>
<rect x="121" y="67" width="8" height="134" fill="#303030"/>
<rect x="192" y="148" width="8" height="134" transform="rotate(90 192 148)" fill="#303030"/>
<rect x="192" y="148" width="8" height="134" transform="rotate(90 192 148)" fill="#303030"/>
<path fill-rule="evenodd" clip-rule="evenodd" d="M222 288C222 291.883 219.787 295.248 216.554 296.905L214.17 323.134C215.879 324.305 217 326.272 217 328.5V332.5C217 336.09 214.09 339 210.5 339C206.91 339 204 336.09 204 332.5V328.5C204 326.272 205.121 324.305 206.83 323.134L204.446 296.905C201.213 295.248 199 291.883 199 288V278.5C199 272.149 204.149 267 210.5 267C216.851 267 222 272.149 222 278.5L222 288Z" fill="white"/>
</svg>
