<svg width="296" height="484" viewBox="0 0 296 484" fill="none" xmlns="http://www.w3.org/2000/svg">
<path fill-rule="evenodd" clip-rule="evenodd" d="M41 0C32.1634 0 25 7.16345 25 16V484H275V16C275 7.16344 267.837 0 259 0H41ZM114.615 55H55V114.615H114.615V55ZM120.615 55H180.231V114.615H120.615V55ZM245.846 55H186.23V114.615H245.846V55ZM55 122.615H114.615V182.231H55V122.615ZM180.231 122.615H120.615V182.231H180.231V122.615ZM186.23 122.615H245.846V182.231H186.23V122.615ZM105 203C105 204.105 105.895 205 107 205H194C195.105 205 196 204.105 196 203V192C196 190.895 195.105 190 194 190H107C105.895 190 105 190.895 105 192V203Z" fill="#303030"/>
<rect x="231" y="242" width="15" height="53" rx="2" fill="white"/>
<path d="M0 435C0 426.163 7.16344 419 16 419H34C42.8366 419 50 426.163 50 435V484H0V435Z" fill="#303030"/>
<path d="M246 435C246 426.163 253.163 419 262 419H280C288.837 419 296 426.163 296 435V484H246V435Z" fill="#303030"/>
</svg>
