<svg width="372" height="583" viewBox="0 0 372 583" fill="none" xmlns="http://www.w3.org/2000/svg">
<path fill-rule="evenodd" clip-rule="evenodd" d="M98 191H0V583H98V191ZM73 369C73 369 26 336.5 26 237L73 237L73 369Z" fill="#303030"/>
<path fill-rule="evenodd" clip-rule="evenodd" d="M274 191H372V583H274V191ZM299 369C299 369 346 336.5 346 237L299 237L299 369Z" fill="#303030"/>
<path fill-rule="evenodd" clip-rule="evenodd" d="M54.4781 54.4781C19.5964 89.3599 -9.94436e-06 136.67 -1.42569e-05 186L186 186L372 186C372 136.67 352.404 89.3599 317.522 54.4781C282.64 19.5964 235.33 1.48452e-05 186 1.42569e-05C136.67 1.36687e-05 89.3599 19.5964 54.4781 54.4781ZM186 30.0308C152 29.1684 136 46.7204 136 46.7204V164C136 164 149.5 159.346 186 159.346C222.5 159.346 236 164 236 164V46.7204C236 46.7204 220 30.8931 186 30.0308ZM26.0001 167C26 99.1591 72.9999 77 72.9999 77L73 167H26.0001ZM299 77C299 77 346 99.1591 346 167H299L299 77Z" fill="#303030"/>
<path fill-rule="evenodd" clip-rule="evenodd" d="M268 191H103V583H268V191ZM186 225.059C152 223.978 136 238.04 136 238.04V385.152C136 385.152 149.5 403 186 403C222.5 403 236 385.152 236 385.152V238.04C236 238.04 220 226.141 186 225.059Z" fill="#303030"/>
<rect x="244" y="401" width="15" height="26.4706" rx="2" fill="white"/>
</svg>
