<svg width="34" height="83" viewBox="0 0 34 83" fill="none" xmlns="http://www.w3.org/2000/svg">
<path fill-rule="evenodd" clip-rule="evenodd" d="M21 2H13V56.0549C9.12605 56.4832 5.99315 59.3702 5.19647 63.1209C3.24156 64.7718 2 67.2409 2 70V72C2 76.9706 6.02944 81 11 81H23C27.9706 81 32 76.9706 32 72V70C32 67.2409 30.7584 64.7718 28.8035 63.1209C28.0069 59.3702 24.874 56.4832 21 56.0549V22H23V24H29V8H23V10H21V2ZM11 70C11 68.3431 12.3431 67 14 67H20C21.6569 67 23 68.3431 23 70C23 71.6569 21.6569 73 20 73H14C12.3431 73 11 71.6569 11 70Z" fill="#D9D9D9"/>
<path d="M13 2V0.5H11.5V2H13ZM21 2H22.5V0.5H21V2ZM13 56.0549L13.1648 57.5458L14.5 57.3982V56.0549H13ZM5.19647 63.1209L6.16428 64.2669L6.55695 63.9353L6.66373 63.4325L5.19647 63.1209ZM28.8035 63.1209L27.3363 63.4325L27.4431 63.9353L27.8357 64.2669L28.8035 63.1209ZM21 56.0549H19.5V57.3982L20.8352 57.5458L21 56.0549ZM21 22V20.5H19.5V22H21ZM23 22H24.5V20.5H23V22ZM23 24H21.5V25.5H23V24ZM29 24V25.5H30.5V24H29ZM29 8H30.5V6.5H29V8ZM23 8V6.5H21.5V8H23ZM23 10V11.5H24.5V10H23ZM21 10H19.5V11.5H21V10ZM13 3.5H21V0.5H13V3.5ZM14.5 56.0549V2H11.5V56.0549H14.5ZM6.66373 63.4325C7.32731 60.3085 9.94015 57.9023 13.1648 57.5458L12.8352 54.564C8.31195 55.064 4.65899 58.4319 3.7292 62.8092L6.66373 63.4325ZM3.5 70C3.5 67.7012 4.53243 65.645 6.16428 64.2669L4.22866 61.9748C1.95069 63.8986 0.5 66.7806 0.5 70H3.5ZM3.5 72V70H0.5V72H3.5ZM11 79.5C6.85786 79.5 3.5 76.1421 3.5 72H0.5C0.5 77.799 5.20101 82.5 11 82.5V79.5ZM23 79.5H11V82.5H23V79.5ZM30.5 72C30.5 76.1421 27.1421 79.5 23 79.5V82.5C28.799 82.5 33.5 77.799 33.5 72H30.5ZM30.5 70V72H33.5V70H30.5ZM27.8357 64.2669C29.4676 65.645 30.5 67.7012 30.5 70H33.5C33.5 66.7806 32.0493 63.8986 29.7713 61.9749L27.8357 64.2669ZM20.8352 57.5458C24.0599 57.9023 26.6727 60.3085 27.3363 63.4325L30.2708 62.8092C29.341 58.4319 25.6881 55.064 21.1648 54.564L20.8352 57.5458ZM19.5 22V56.0549H22.5V22H19.5ZM23 20.5H21V23.5H23V20.5ZM24.5 24V22H21.5V24H24.5ZM29 22.5H23V25.5H29V22.5ZM27.5 8V24H30.5V8H27.5ZM23 9.5H29V6.5H23V9.5ZM24.5 10V8H21.5V10H24.5ZM21 11.5H23V8.5H21V11.5ZM19.5 2V10H22.5V2H19.5ZM14 65.5C11.5147 65.5 9.5 67.5147 9.5 70H12.5C12.5 69.1716 13.1716 68.5 14 68.5V65.5ZM20 65.5H14V68.5H20V65.5ZM24.5 70C24.5 67.5147 22.4853 65.5 20 65.5V68.5C20.8284 68.5 21.5 69.1716 21.5 70H24.5ZM20 74.5C22.4853 74.5 24.5 72.4853 24.5 70H21.5C21.5 70.8284 20.8284 71.5 20 71.5V74.5ZM14 74.5H20V71.5H14V74.5ZM9.5 70C9.5 72.4853 11.5147 74.5 14 74.5V71.5C13.1716 71.5 12.5 70.8284 12.5 70H9.5Z" fill="black"/>
</svg>
