<svg width="32" height="83" viewBox="0 0 32 83" fill="none" xmlns="http://www.w3.org/2000/svg">
<path fill-rule="evenodd" clip-rule="evenodd" d="M12 2H15H20H28V10H20V13H28V21H20V53.5798C25.783 55.3009 30 60.658 30 67C30 74.732 23.732 81 16 81C8.26801 81 2 74.732 2 67C2 60.658 6.21702 55.3009 12 53.5798V2ZM16 73C19.3137 73 22 70.3137 22 67C22 63.6863 19.3137 61 16 61C12.6863 61 10 63.6863 10 67C10 70.3137 12.6863 73 16 73Z" fill="#D9D9D9"/>
<path d="M12 2V0.5H10.5V2H12ZM28 2H29.5V0.5H28V2ZM28 10V11.5H29.5V10H28ZM20 10V8.5H18.5V10H20ZM20 13H18.5V14.5H20V13ZM28 13H29.5V11.5H28V13ZM28 21V22.5H29.5V21H28ZM20 21V19.5H18.5V21H20ZM20 53.5798H18.5V54.6984L19.5721 55.0174L20 53.5798ZM12 53.5798L12.4279 55.0174L13.5 54.6984V53.5798H12ZM15 0.5H12V3.5H15V0.5ZM20 0.5H15V3.5H20V0.5ZM28 0.5H20V3.5H28V0.5ZM29.5 10V2H26.5V10H29.5ZM20 11.5H28V8.5H20V11.5ZM21.5 13V10H18.5V13H21.5ZM28 11.5H20V14.5H28V11.5ZM29.5 21V13H26.5V21H29.5ZM20 22.5H28V19.5H20V22.5ZM21.5 53.5798V21H18.5V53.5798H21.5ZM31.5 67C31.5 59.9762 26.8294 54.0473 20.4279 52.1421L19.5721 55.0174C24.7366 56.5545 28.5 61.3397 28.5 67H31.5ZM16 82.5C24.5604 82.5 31.5 75.5604 31.5 67H28.5C28.5 73.9036 22.9036 79.5 16 79.5V82.5ZM0.5 67C0.5 75.5604 7.43959 82.5 16 82.5V79.5C9.09644 79.5 3.5 73.9036 3.5 67H0.5ZM11.5721 52.1421C5.1706 54.0473 0.5 59.9762 0.5 67H3.5C3.5 61.3397 7.26344 56.5545 12.4279 55.0174L11.5721 52.1421ZM10.5 2V53.5798H13.5V2H10.5ZM20.5 67C20.5 69.4853 18.4853 71.5 16 71.5V74.5C20.1421 74.5 23.5 71.1421 23.5 67H20.5ZM16 62.5C18.4853 62.5 20.5 64.5147 20.5 67H23.5C23.5 62.8579 20.1421 59.5 16 59.5V62.5ZM11.5 67C11.5 64.5147 13.5147 62.5 16 62.5V59.5C11.8579 59.5 8.5 62.8579 8.5 67H11.5ZM16 71.5C13.5147 71.5 11.5 69.4853 11.5 67H8.5C8.5 71.1421 11.8579 74.5 16 74.5V71.5Z" fill="black"/>
</svg>
