<svg width="36" height="83" viewBox="0 0 36 83" fill="none" xmlns="http://www.w3.org/2000/svg">
<path fill-rule="evenodd" clip-rule="evenodd" d="M17 2H14V53.7517C12.9326 53.2688 11.7477 53 10.5 53C5.80558 53 2 56.8056 2 61.5C2 66.1523 5.73761 69.9316 10.3739 69.9991C10.1308 70.7898 10 71.6296 10 72.5C10 77.1944 13.8056 81 18.5 81C23.1944 81 27 77.1944 27 72.5C27 71.6038 26.8613 70.74 26.6042 69.9289C30.777 69.3876 34 65.8202 34 61.5C34 56.8056 30.1944 53 25.5 53C24.2523 53 23.0674 53.2688 22 53.7517V25H30V22V17V15H24V17H22V10H24V12H30V10V2H22H17ZM9 61.5C9 62.3284 9.67157 63 10.5 63C11.3284 63 12 62.3284 12 61.5C12 60.6716 11.3284 60 10.5 60C9.67157 60 9 60.6716 9 61.5ZM24 61.5C24 62.3284 24.6716 63 25.5 63C26.3284 63 27 62.3284 27 61.5C27 60.6716 26.3284 60 25.5 60C24.6716 60 24 60.6716 24 61.5ZM18.5 74C17.6716 74 17 73.3284 17 72.5C17 71.6716 17.6716 71 18.5 71C19.3284 71 20 71.6716 20 72.5C20 73.3284 19.3284 74 18.5 74Z" fill="#D9D9D9"/>
<path d="M14 2V0.5H12.5V2H14ZM14 53.7517L13.3817 55.1184L15.5 56.0768V53.7517H14ZM10.3739 69.9991L11.8077 70.4398L12.3953 68.5283L10.3957 68.4992L10.3739 69.9991ZM26.6042 69.9289L26.4113 68.4414L24.6323 68.6722L25.1743 70.3822L26.6042 69.9289ZM22 53.7517H20.5V56.0768L22.6183 55.1184L22 53.7517ZM22 25V23.5H20.5V25H22ZM30 25V26.5H31.5V25H30ZM30 15H31.5V13.5H30V15ZM24 15V13.5H22.5V15H24ZM24 17V18.5H25.5V17H24ZM22 17H20.5V18.5H22V17ZM22 10V8.5H20.5V10H22ZM24 10H25.5V8.5H24V10ZM24 12H22.5V13.5H24V12ZM30 12V13.5H31.5V12H30ZM30 2H31.5V0.5H30V2ZM14 3.5H17V0.5H14V3.5ZM15.5 53.7517V2H12.5V53.7517H15.5ZM10.5 54.5C11.5303 54.5 12.5048 54.7216 13.3817 55.1184L14.6183 52.3851C13.3605 51.816 11.9651 51.5 10.5 51.5V54.5ZM3.5 61.5C3.5 57.634 6.63401 54.5 10.5 54.5V51.5C4.97715 51.5 0.5 55.9772 0.5 61.5H3.5ZM10.3957 68.4992C6.57806 68.4437 3.5 65.3312 3.5 61.5H0.5C0.5 66.9734 4.89716 71.4196 10.3521 71.4989L10.3957 68.4992ZM11.5 72.5C11.5 71.7807 11.608 71.0893 11.8077 70.4398L8.9401 69.5583C8.65363 70.4902 8.5 71.4786 8.5 72.5H11.5ZM18.5 79.5C14.634 79.5 11.5 76.366 11.5 72.5H8.5C8.5 78.0228 12.9772 82.5 18.5 82.5V79.5ZM25.5 72.5C25.5 76.366 22.366 79.5 18.5 79.5V82.5C24.0228 82.5 28.5 78.0228 28.5 72.5H25.5ZM25.1743 70.3822C25.3855 71.0484 25.5 71.7594 25.5 72.5H28.5C28.5 71.4482 28.3371 70.4317 28.0341 69.4757L25.1743 70.3822ZM32.5 61.5C32.5 65.0566 29.8461 67.9958 26.4113 68.4414L26.7972 71.4165C31.7078 70.7795 35.5 66.5838 35.5 61.5H32.5ZM25.5 54.5C29.366 54.5 32.5 57.634 32.5 61.5H35.5C35.5 55.9772 31.0228 51.5 25.5 51.5V54.5ZM22.6183 55.1184C23.4952 54.7216 24.4697 54.5 25.5 54.5V51.5C24.0349 51.5 22.6395 51.816 21.3817 52.3851L22.6183 55.1184ZM20.5 25V53.7517H23.5V25H20.5ZM30 23.5H22V26.5H30V23.5ZM28.5 22V25H31.5V22H28.5ZM28.5 17V22H31.5V17H28.5ZM28.5 15V17H31.5V15H28.5ZM24 16.5H30V13.5H24V16.5ZM25.5 17V15H22.5V17H25.5ZM22 18.5H24V15.5H22V18.5ZM20.5 10V17H23.5V10H20.5ZM24 8.5H22V11.5H24V8.5ZM25.5 12V10H22.5V12H25.5ZM30 10.5H24V13.5H30V10.5ZM28.5 10V12H31.5V10H28.5ZM28.5 2V10H31.5V2H28.5ZM22 3.5H30V0.5H22V3.5ZM17 3.5H22V0.5H17V3.5ZM10.5 61.5H7.5C7.5 63.1569 8.84314 64.5 10.5 64.5V61.5ZM10.5 61.5V64.5C12.1569 64.5 13.5 63.1569 13.5 61.5H10.5ZM10.5 61.5H13.5C13.5 59.8431 12.1569 58.5 10.5 58.5V61.5ZM10.5 61.5V58.5C8.84314 58.5 7.5 59.8431 7.5 61.5H10.5ZM25.5 61.5H22.5C22.5 63.1569 23.8431 64.5 25.5 64.5V61.5ZM25.5 61.5V64.5C27.1569 64.5 28.5 63.1569 28.5 61.5H25.5ZM25.5 61.5H28.5C28.5 59.8431 27.1569 58.5 25.5 58.5V61.5ZM25.5 61.5V58.5C23.8431 58.5 22.5 59.8431 22.5 61.5H25.5ZM15.5 72.5C15.5 74.1569 16.8431 75.5 18.5 75.5V72.5H15.5ZM18.5 69.5C16.8431 69.5 15.5 70.8431 15.5 72.5H18.5V69.5ZM21.5 72.5C21.5 70.8431 20.1569 69.5 18.5 69.5V72.5H21.5ZM18.5 75.5C20.1569 75.5 21.5 74.1569 21.5 72.5H18.5V75.5Z" fill="black"/>
</svg>
