<svg width="40" height="40" viewBox="0 0 40 40" fill="none" xmlns="http://www.w3.org/2000/svg">
<mask id="path-1-inside-1_763_1803" fill="white">
<path d="M40 20C40 8.9543 31.0457 0 20 0C8.9543 0 0 8.9543 0 20C0 31.0457 8.9543 40 20 40C31.0457 40 40 31.0457 40 20ZM27.5 10C27.5 5.85786 24.1421 2.5 20 2.5C15.8579 2.5 12.5 5.85786 12.5 10C12.5 14.1421 15.8579 17.5 20 17.5C24.1421 17.5 27.5 14.1421 27.5 10Z"/>
</mask>
<path fill-rule="evenodd" clip-rule="evenodd" d="M40 20C40 8.9543 31.0457 0 20 0C8.9543 0 0 8.9543 0 20C0 31.0457 8.9543 40 20 40C31.0457 40 40 31.0457 40 20ZM27.5 10C27.5 5.85786 24.1421 2.5 20 2.5C15.8579 2.5 12.5 5.85786 12.5 10C12.5 14.1421 15.8579 17.5 20 17.5C24.1421 17.5 27.5 14.1421 27.5 10Z" fill="none"/>
<path d="M20 2.5L20 6.25L20 6.25L20 2.5ZM12.5 10L16.25 10L16.25 10L12.5 10ZM20 3.75C28.9746 3.75 36.25 11.0254 36.25 20H43.75C43.75 6.88323 33.1168 -3.75 20 -3.75V3.75ZM3.75 20C3.75 11.0254 11.0254 3.75 20 3.75V-3.75C6.88323 -3.75 -3.75 6.88324 -3.75 20H3.75ZM20 36.25C11.0254 36.25 3.75 28.9746 3.75 20H-3.75C-3.75 33.1168 6.88324 43.75 20 43.75V36.25ZM36.25 20C36.25 28.9746 28.9746 36.25 20 36.25V43.75C33.1168 43.75 43.75 33.1168 43.75 20H36.25ZM20 6.25C22.0711 6.25 23.75 7.92893 23.75 10H31.25C31.25 3.7868 26.2132 -1.25 20 -1.25L20 6.25ZM16.25 10C16.25 7.92893 17.9289 6.25 20 6.25V-1.25C13.7868 -1.25 8.75 3.7868 8.75 10L16.25 10ZM20 13.75C17.9289 13.75 16.25 12.0711 16.25 10H8.75C8.75 16.2132 13.7868 21.25 20 21.25V13.75ZM23.75 10C23.75 12.0711 22.0711 13.75 20 13.75V21.25C26.2132 21.25 31.25 16.2132 31.25 10H23.75Z" fill="white" mask="url(#path-1-inside-1_763_1803)"/>
</svg>
