<svg width="40" height="40" viewBox="0 0 40 40" fill="none" xmlns="http://www.w3.org/2000/svg">
<mask id="path-1-inside-1_763_1756" fill="white">
<path fill-rule="evenodd" clip-rule="evenodd" d="M32.5 40H7.5V7.5V0H25V7.5L32.5 12.5V40ZM15 37.5L15 22.5H10L10 37.5H15Z"/>
</mask>
<path fill-rule="evenodd" clip-rule="evenodd" d="M32.5 40H7.5V7.5V0H25V7.5L32.5 12.5V40ZM15 37.5L15 22.5H10L10 37.5H15Z" fill="none"/>
<path d="M7.5 40H3.75V43.75H7.5V40ZM32.5 40V43.75H36.25V40H32.5ZM7.5 0V-3.75H3.75V0H7.5ZM25 0H28.75V-3.75H25V0ZM25 7.5H21.25V9.50694L22.9199 10.6202L25 7.5ZM32.5 12.5H36.25V10.4931L34.5801 9.37981L32.5 12.5ZM15 22.5L18.75 22.5L18.75 18.75H15V22.5ZM15 37.5V41.25H18.75L18.75 37.5L15 37.5ZM10 22.5V18.75H6.25L6.25 22.5L10 22.5ZM10 37.5L6.25 37.5L6.25 41.25H10V37.5ZM7.5 43.75H32.5V36.25H7.5V43.75ZM3.75 7.5V40H11.25V7.5H3.75ZM3.75 0V7.5H11.25V0H3.75ZM25 -3.75H7.5V3.75H25V-3.75ZM28.75 7.5V0H21.25V7.5H28.75ZM34.5801 9.37981L27.0801 4.37981L22.9199 10.6202L30.4199 15.6202L34.5801 9.37981ZM36.25 40V12.5H28.75V40H36.25ZM11.25 22.5L11.25 37.5L18.75 37.5L18.75 22.5L11.25 22.5ZM10 26.25H15V18.75H10V26.25ZM13.75 37.5L13.75 22.5L6.25 22.5L6.25 37.5L13.75 37.5ZM15 33.75H10V41.25H15V33.75Z" fill="white" mask="url(#path-1-inside-1_763_1756)"/>
</svg>
