<svg width="40" height="41" viewBox="0 0 40 41" fill="none" xmlns="http://www.w3.org/2000/svg">
<mask id="path-1-inside-1_763_1751" fill="white">
<path fill-rule="evenodd" clip-rule="evenodd" d="M37.3207 10.5L20.0002 0.5L2.67969 10.5V30.5L20.0002 40.5L37.3207 30.5V10.5ZM23.7502 20.5C23.7502 22.5711 22.0713 24.25 20.0002 24.25C17.9291 24.25 16.2502 22.5711 16.2502 20.5C16.2502 18.4289 17.9291 16.75 20.0002 16.75C22.0713 16.75 23.7502 18.4289 23.7502 20.5ZM27.5002 20.5C27.5002 24.6421 24.1423 28 20.0002 28C15.8581 28 12.5002 24.6421 12.5002 20.5C12.5002 16.3579 15.8581 13 20.0002 13C24.1423 13 27.5002 16.3579 27.5002 20.5Z"/>
</mask>
<path fill-rule="evenodd" clip-rule="evenodd" d="M37.3207 10.5L20.0002 0.5L2.67969 10.5V30.5L20.0002 40.5L37.3207 30.5V10.5ZM23.7502 20.5C23.7502 22.5711 22.0713 24.25 20.0002 24.25C17.9291 24.25 16.2502 22.5711 16.2502 20.5C16.2502 18.4289 17.9291 16.75 20.0002 16.75C22.0713 16.75 23.7502 18.4289 23.7502 20.5ZM27.5002 20.5C27.5002 24.6421 24.1423 28 20.0002 28C15.8581 28 12.5002 24.6421 12.5002 20.5C12.5002 16.3579 15.8581 13 20.0002 13C24.1423 13 27.5002 16.3579 27.5002 20.5Z" fill="none"/>
<path d="M20.0002 0.5L21.8752 -2.7476L20.0002 -3.83013L18.1252 -2.7476L20.0002 0.5ZM37.3207 10.5H41.0707V8.33494L39.1957 7.2524L37.3207 10.5ZM2.67969 10.5L0.804688 7.2524L-1.07031 8.33494V10.5H2.67969ZM2.67969 30.5H-1.07031V32.6651L0.804688 33.7476L2.67969 30.5ZM20.0002 40.5L18.1252 43.7476L20.0002 44.8301L21.8752 43.7476L20.0002 40.5ZM37.3207 30.5L39.1957 33.7476L41.0707 32.6651V30.5H37.3207ZM18.1252 3.7476L35.4457 13.7476L39.1957 7.2524L21.8752 -2.7476L18.1252 3.7476ZM4.55469 13.7476L21.8752 3.7476L18.1252 -2.7476L0.804688 7.2524L4.55469 13.7476ZM6.42969 30.5V10.5H-1.07031V30.5H6.42969ZM21.8752 37.2524L4.55469 27.2524L0.804688 33.7476L18.1252 43.7476L21.8752 37.2524ZM35.4457 27.2524L18.1252 37.2524L21.8752 43.7476L39.1957 33.7476L35.4457 27.2524ZM33.5707 10.5V30.5H41.0707V10.5H33.5707ZM20.0002 28C24.1423 28 27.5002 24.6421 27.5002 20.5H20.0002V28ZM12.5002 20.5C12.5002 24.6421 15.8581 28 20.0002 28V20.5H12.5002ZM20.0002 13C15.8581 13 12.5002 16.3579 12.5002 20.5H20.0002V13ZM27.5002 20.5C27.5002 16.3579 24.1423 13 20.0002 13V20.5H27.5002ZM20.0002 31.75C26.2134 31.75 31.2502 26.7132 31.2502 20.5H23.7502C23.7502 22.5711 22.0713 24.25 20.0002 24.25V31.75ZM8.7502 20.5C8.7502 26.7132 13.787 31.75 20.0002 31.75V24.25C17.9291 24.25 16.2502 22.5711 16.2502 20.5H8.7502ZM20.0002 9.25C13.787 9.25 8.7502 14.2868 8.7502 20.5H16.2502C16.2502 18.4289 17.9291 16.75 20.0002 16.75V9.25ZM31.2502 20.5C31.2502 14.2868 26.2134 9.25 20.0002 9.25V16.75C22.0713 16.75 23.7502 18.4289 23.7502 20.5H31.2502Z" fill="white" mask="url(#path-1-inside-1_763_1751)"/>
</svg>
