<svg width="267" height="267" viewBox="0 0 267 267" fill="none" xmlns="http://www.w3.org/2000/svg">
<path d="M133.316 266.943C157.122 266.943 171.406 254.699 171.406 231.573C171.406 228.852 171.066 226.132 170.726 224.091C178.208 234.634 189.091 241.096 199.974 241.096C219.019 241.096 240.785 220.01 240.785 200.285C240.785 189.742 234.323 178.859 223.78 171.037C226.161 171.377 228.542 171.717 231.262 171.717C254.389 171.717 266.632 157.433 266.632 133.627C266.632 109.82 254.389 95.5363 231.262 95.5363C228.542 95.5363 226.161 95.8764 223.78 96.2164C235.003 87.3741 240.785 77.5114 240.785 66.6285C240.785 45.2027 222.08 27.1778 199.974 27.1778C190.111 27.1778 179.228 32.9594 170.726 43.1621C171.066 41.1216 171.406 38.4008 171.406 35.6801C171.406 12.5539 157.122 0.310547 133.316 0.310547C109.51 0.310547 95.2257 12.5539 95.2257 35.6801C95.2257 38.4008 95.5658 41.1216 95.9059 43.1621C88.764 33.6395 77.2009 27.1778 66.658 27.1778C43.8718 27.1778 25.847 45.2027 25.847 66.6285C25.847 77.5114 32.3087 88.3943 42.8516 96.2164H40.811L35.3696 95.8764C18.365 94.8561 0 107.78 0 133.627C0 157.433 12.2433 171.717 35.3696 171.717C38.0903 171.717 40.811 171.377 42.8516 171.037C32.3087 178.519 25.847 189.402 25.847 200.285C25.847 220.01 47.6129 241.096 66.658 241.096C77.5409 241.096 88.764 234.294 95.9059 224.091C95.5658 226.132 95.2257 228.852 95.2257 231.573C95.2257 254.699 109.51 266.943 133.316 266.943ZM119.712 92.1353L110.87 71.0497C106.789 61.187 103.388 47.2432 103.388 39.7612C103.388 20.7161 114.611 9.15294 133.316 9.15294C152.021 9.15294 163.244 21.3962 163.244 39.7612C163.244 47.2432 159.843 61.5271 155.762 71.0497L146.92 92.1353L142.158 90.775C142.839 88.0542 151.681 60.5068 151.681 45.2027C151.681 32.2792 143.859 22.7566 133.316 22.7566C122.773 22.7566 114.951 32.2792 114.951 45.2027C114.951 52.0045 116.652 60.8469 119.712 71.7298L124.474 90.775L119.712 92.1353ZM93.8654 113.901L72.7797 105.739C54.0746 98.5971 35.3696 83.6331 35.3696 66.2884C35.3696 49.964 49.9935 36.3603 65.2976 36.3603C82.9824 36.3603 97.9465 56.0856 104.748 73.7704L112.91 94.8561L108.829 96.8966L99.3068 79.892C93.8654 69.0091 81.622 50.6441 66.3179 50.6441C56.7953 50.9842 49.6534 57.446 49.6534 67.3087C49.6534 78.8718 58.1557 86.6939 79.5815 99.6174L96.5861 109.82L93.8654 113.901ZM172.087 113.901L170.046 109.82C181.609 103.018 216.298 85.6736 216.298 67.3087C216.298 57.7861 209.156 50.6441 199.634 50.6441C185.69 50.6441 172.767 69.0091 167.325 79.892L157.803 96.8966L153.041 94.8561L161.884 73.7704C172.427 48.6036 186.03 36.3603 201.334 36.3603C216.639 36.3603 231.262 49.6239 231.262 66.2884C231.262 83.293 213.578 98.257 193.852 105.739L172.087 113.901ZM133.316 168.316C113.931 168.316 98.6266 153.012 98.6266 133.627C98.6266 114.241 113.931 98.9372 133.316 98.9372C152.701 98.9372 168.005 114.241 168.005 133.627C168.005 153.012 152.701 168.316 133.316 168.316ZM39.4507 164.235C20.4055 164.235 8.84239 153.012 8.84239 134.307C8.84239 115.602 21.0857 104.379 39.4507 104.379C46.9327 104.379 61.2165 107.78 70.7391 111.861L91.8248 120.703L90.4644 125.464L66.658 119.343C57.8156 116.962 50.6737 115.942 44.8921 115.942C31.9686 115.942 22.4461 123.764 22.4461 134.307C22.4461 144.85 31.9686 152.672 44.8921 152.672C52.3741 152.672 61.2165 151.651 71.4193 148.591L90.4644 143.149L91.8248 147.91L70.7391 156.753C60.8764 160.834 46.9327 164.235 39.4507 164.235ZM227.181 164.235C219.359 164.235 204.735 160.834 195.213 156.753L174.127 147.91L175.487 143.149C179.228 144.169 206.436 152.672 221.74 152.672C234.323 152.672 244.186 145.19 244.186 134.307C244.186 123.764 234.323 115.942 221.74 115.942C215.958 115.942 208.476 116.962 199.634 119.343L175.487 125.464L174.127 120.703L195.213 111.861C204.735 107.78 219.359 104.379 227.181 104.379C245.886 104.379 257.79 115.942 257.79 134.307C257.79 152.332 246.227 164.235 227.181 164.235ZM65.9778 231.573C51.3539 231.573 35.7096 215.589 35.7096 200.965C35.7096 185.321 51.694 170.697 73.4598 162.194L94.5455 154.032L96.5861 158.113C85.3631 164.915 50.3336 182.26 50.3336 200.625C50.3336 210.147 57.1354 217.289 66.9981 217.289C80.9419 217.289 93.8654 198.924 99.3068 188.041L109.51 170.356L113.591 173.077L104.748 194.163C92.505 223.071 79.9216 231.573 65.9778 231.573ZM200.654 231.573C183.65 231.573 168.686 213.888 161.204 194.163L153.041 173.077L157.122 170.356L166.645 188.041C172.427 198.584 184.33 217.289 199.634 217.289C209.156 217.289 216.298 210.147 216.298 200.625C216.298 195.523 214.258 190.422 210.517 185.661C206.776 180.899 198.274 175.118 186.37 168.316L169.366 158.113L172.087 154.032L193.172 162.194C214.258 170.356 230.582 184.98 230.582 201.645C230.582 215.929 214.938 231.573 200.654 231.573ZM133.316 258.1C115.291 258.1 103.388 246.537 103.388 227.492C103.388 220.01 106.789 205.726 110.87 196.203L119.712 175.118L124.474 176.478L118.352 200.285C115.971 209.127 114.951 216.269 114.951 222.05C114.951 234.634 122.433 244.497 133.316 244.497C143.859 244.497 151.681 234.634 151.681 222.05C151.681 214.568 150.661 205.726 147.6 195.523L142.158 176.478L146.92 175.118L155.762 196.203C159.843 206.066 163.244 220.01 163.244 227.492C163.244 246.197 151.681 258.1 133.316 258.1Z" fill="#7B67F3"/>
</svg>
