<svg width="264" height="265" viewBox="0 0 264 265" fill="none" xmlns="http://www.w3.org/2000/svg">
<path d="M131.956 264.12C145.899 264.12 157.122 252.897 157.122 238.953C157.122 236.233 156.782 233.512 155.762 230.791C168.345 229.091 177.528 219.228 177.528 206.305C177.528 192.361 166.305 181.138 152.361 181.138C146.58 181.138 141.138 182.838 136.717 186.579L138.077 138.966L185.69 137.606C181.609 142.707 179.569 147.809 179.569 153.25C179.569 167.194 190.451 178.417 204.735 178.417C217.319 178.417 228.202 169.575 229.902 156.651C232.623 157.672 235.344 158.012 238.064 158.012C252.008 158.012 263.231 146.789 263.231 132.845C263.231 118.221 252.008 107.678 238.064 107.678C236.024 107.678 232.963 108.358 229.902 109.038C227.862 95.7748 216.639 86.5923 204.735 86.5923C190.792 86.5923 179.569 97.8154 179.569 111.759C179.569 117.541 181.609 122.982 185.69 128.084L138.077 126.043L136.717 79.1103C141.478 82.5112 146.58 84.5518 152.361 84.5518C166.305 84.5518 177.528 73.6688 177.528 59.385C177.528 47.1417 169.026 36.2587 155.762 34.2182C156.782 31.4974 157.122 28.7767 157.122 26.056C157.122 12.1122 145.899 0.88916 131.956 0.88916C117.332 0.88916 106.789 12.1122 106.789 26.056C106.789 29.797 107.129 32.5177 107.469 34.2182C94.2054 35.9186 85.7031 47.1417 85.7031 59.385C85.7031 73.3287 96.9262 84.5518 110.87 84.5518C116.652 84.5518 121.753 82.5112 126.514 79.1103L125.154 126.043L78.2211 127.403C81.9621 122.982 83.6626 117.541 83.6626 111.759C83.6626 97.8154 72.4396 86.5923 58.4958 86.5923C46.5926 86.5923 35.3696 95.7748 33.329 109.038C30.2682 108.358 27.2074 107.678 25.1668 107.678C11.223 107.678 0 118.561 0 132.845C0 146.789 11.223 158.012 25.1668 158.012C27.8875 158.012 30.6083 157.672 33.329 156.651C35.0295 169.915 46.2525 178.417 58.4958 178.417C73.1197 178.417 83.6626 167.194 83.6626 153.25C83.6626 147.469 81.9621 142.027 78.2211 137.606L125.154 138.966L126.514 186.579C122.093 182.838 116.652 181.138 110.87 181.138C96.246 181.138 85.7031 192.701 85.7031 206.305C85.7031 219.228 94.8856 229.091 107.469 230.791C107.129 232.492 106.789 235.212 106.789 238.953C106.789 252.897 117.672 264.12 131.956 264.12Z" fill="#2e94b0"/>
</svg>
