<svg width="274" height="265" viewBox="0 0 274 265" fill="none" xmlns="http://www.w3.org/2000/svg">
<path d="M81.282 264.74C111.55 264.74 131.616 239.233 136.717 197.402C136.717 205.224 138.757 214.746 143.519 226.65C152.701 249.776 169.366 264.74 191.812 264.74C216.979 264.74 239.425 240.593 239.425 219.848C239.425 190.94 213.238 167.134 189.771 158.631C195.213 160.332 203.375 161.692 213.918 162.032C243.846 162.032 273.434 144.347 273.434 114.079C273.434 84.4912 251.668 65.4461 227.181 65.4461C205.756 65.4461 185.35 76.329 170.726 94.3539L169.366 96.0543C178.208 83.4709 183.65 65.7862 183.65 49.1217C183.65 21.5742 164.945 0.148438 136.717 0.148438C107.809 0.148438 89.1041 22.2544 89.1041 49.1217C89.1041 67.1465 95.5658 84.8313 103.388 96.0543C89.4442 78.3696 66.3179 65.4461 46.2525 65.4461C21.0857 65.4461 0 85.1714 0 114.419C0 143.667 27.5474 162.032 59.176 162.032C66.9981 162.032 74.8202 161.012 82.9824 158.631C60.1963 166.453 34.0092 191.96 34.0092 219.168C34.0092 241.614 57.4755 264.74 81.282 264.74ZM117.672 101.496C108.489 92.6534 102.708 75.9889 102.708 60.0046C102.708 38.5788 116.992 24.635 136.717 24.635C156.442 24.635 170.046 38.5788 170.046 60.0046C170.046 75.9889 164.264 92.3133 155.082 101.496L144.199 97.4147C142.499 92.9935 141.478 88.5723 141.478 84.4912C141.478 80.07 144.879 72.588 144.879 68.1668C144.879 62.0452 142.158 56.6037 136.717 56.6037C131.275 56.6037 128.555 62.0452 128.555 68.1668C128.555 71.5677 131.275 80.07 131.275 84.4912C131.275 87.8921 130.595 92.3133 128.555 97.4147L117.672 101.496ZM68.0184 153.87C41.4912 153.87 23.4663 138.906 23.4663 118.5C23.4663 99.4553 36.7299 83.811 55.7751 83.811C75.8405 83.811 96.5861 99.1152 103.388 113.059L96.5861 122.582H95.2257C89.1041 122.582 82.6423 120.881 76.5207 117.14C70.399 113.399 65.6377 112.039 62.917 112.039C58.8359 112.039 54.7548 114.079 54.7548 119.181C54.7548 124.962 60.5364 128.363 71.4193 129.383C82.6423 130.404 89.4442 133.464 91.8248 136.865V148.428C85.023 152.169 77.2009 153.87 68.0184 153.87ZM205.075 153.87C195.553 153.87 187.731 152.169 180.929 148.428L181.609 136.865C188.071 131.764 195.893 129.043 204.735 128.703C213.578 128.363 217.999 125.302 217.999 119.521C217.999 114.419 215.278 112.039 209.837 112.039C206.776 112.039 202.695 113.739 197.253 117.14C191.812 120.541 186.37 121.561 180.929 122.241L178.208 122.582H176.848L169.366 113.059C175.827 99.4553 196.573 83.811 217.319 83.811C236.024 83.811 249.968 98.7751 249.968 118.5C249.968 138.906 231.603 153.87 205.075 153.87ZM86.7234 242.974C69.3787 242.974 52.0341 227.33 52.0341 209.645C52.0341 186.179 78.5612 166.793 96.5861 163.393L102.708 172.915C100.667 181.077 96.5861 187.199 90.8045 191.28C85.023 195.361 81.9621 199.442 81.9621 204.204C81.9621 207.945 85.3631 212.026 89.4442 212.026C94.8856 212.026 98.6266 208.285 100.667 200.463C102.708 192.981 107.809 186.519 115.631 181.757L126.514 185.158L126.854 187.879V191.28C126.854 212.366 109.51 242.974 86.7234 242.974ZM184.67 242.974C177.528 242.974 171.066 240.253 164.945 235.152C152.701 224.949 144.539 203.863 144.539 191.28V187.879L144.879 185.158L155.762 181.757C162.564 186.859 167.665 192.981 170.386 200.463C173.107 208.285 177.188 212.026 181.949 212.026C185.69 212.026 189.091 208.625 189.091 204.884C189.091 200.463 186.03 196.041 180.249 191.28C174.467 186.519 170.386 180.737 168.686 172.915L174.807 163.393C193.172 167.474 219.359 185.839 219.359 209.645C219.359 226.99 202.355 242.974 184.67 242.974Z" fill="#E298E4"/>
</svg>
