<svg width="198" height="262" viewBox="0 0 198 262" fill="none" xmlns="http://www.w3.org/2000/svg">
<path d="M94.5415 245.998C94.4691 234.082 93.9732 224.553 93.054 217.41C92.2155 210.055 90.2572 203.73 87.1791 198.433C84.313 193.217 79.6307 187.674 73.1323 181.803C66.8458 176.013 58.2184 168.725 47.25 159.939C37.9466 152.514 29.4251 145.267 21.6855 138.195C14.0267 130.912 8.24952 124.103 4.35409 117.767C0.458665 111.432 -0.561205 105.827 1.29447 100.954C2.9081 96.7161 6.99387 94.2688 13.5518 93.612C20.1097 92.9552 27.6264 94.2404 36.1019 97.4677C45.6368 101.098 54.9247 106.333 63.9658 113.172C73.2187 120.092 81.1803 127.855 87.8506 136.46C94.7328 145.146 99.3197 153.806 101.611 162.443L96.8133 158.796C99.6372 151.38 103.853 144.13 109.462 137.047C115.07 129.963 121.406 123.52 128.467 117.718C135.529 111.915 142.732 107.016 150.076 103.019C157.632 99.1036 164.81 96.4995 171.61 95.207C178.703 93.7834 184.792 94.0397 189.877 95.9761C196.869 98.6386 198.833 103.996 195.767 112.047C192.378 120.947 186.961 129.438 179.517 137.52C172.072 145.603 162.559 153.383 150.978 160.861C139.397 168.339 130.005 175.801 122.802 183.248C115.599 190.695 110.586 198.127 107.762 205.543C106.633 208.509 105.66 212.021 104.843 216.077C104.026 220.133 103.407 224.627 102.984 229.561C102.773 234.576 102.612 240.094 102.502 246.118L94.5415 245.998ZM94.4228 261.601L93.6109 99.3506L103.282 99.7577L103.14 261.645L94.4228 261.601ZM81.5493 99.4886C72.65 96.1 65.2992 90.8749 59.4968 83.8133C53.9063 76.8324 50.3637 68.9331 48.8691 60.1153C47.4553 51.0856 48.4426 42.1211 51.8313 33.2219C55.2199 24.3226 60.4046 17.0778 67.3856 11.4872C74.3665 5.89672 82.2658 2.35417 91.0836 0.859609C100.194 -0.766167 109.199 0.115259 118.098 3.50388C126.997 6.8925 134.202 12.1832 139.712 19.376C145.514 26.4376 149.163 34.3773 150.657 43.1951C152.152 52.0129 151.205 60.8714 147.816 69.7706C144.427 78.6699 139.202 86.0207 132.141 91.8231C125.16 97.4136 117.154 100.916 108.125 102.33C99.307 103.824 90.4485 102.877 81.5493 99.4886ZM87.8424 82.9615C93.7752 85.2205 99.5969 85.8603 105.307 84.8808C111.098 83.6894 116.259 81.2873 120.788 77.6747C125.61 73.9308 129.11 69.1984 131.289 63.4775C133.548 57.5446 134.082 51.6827 132.89 45.8916C131.911 40.1813 129.615 35.0613 126.002 30.5318C122.47 25.7904 117.738 22.2902 111.805 20.0311C106.084 17.8527 100.222 17.3188 94.219 18.4296C88.5086 19.4091 83.2827 21.6649 78.5413 25.1968C74.0118 28.8095 70.6175 33.5822 68.3584 39.515C66.18 45.236 65.5403 51.0576 66.4391 56.9799C67.6305 62.7709 69.9922 68.0371 73.5242 72.7786C77.3487 77.3888 82.1215 80.7831 87.8424 82.9615Z" fill="#B6FF8E"/>
</svg>
