<svg width="262" height="263" viewBox="0 0 262 263" fill="none" xmlns="http://www.w3.org/2000/svg">
<path d="M128.215 88.775H132.976C133.656 79.2524 136.377 66.3289 140.798 50.3446C145.219 34.3603 147.94 24.1575 147.94 19.3962C147.94 7.49301 141.478 0.351074 130.935 0.351074C120.393 0.351074 113.931 7.49301 113.931 19.3962C113.931 24.1575 116.311 33.34 120.393 47.964C124.474 62.2478 127.194 75.8515 128.215 88.775ZM162.564 102.719C169.706 96.257 182.629 87.7547 201.334 77.892C219.699 68.0294 228.882 59.187 228.882 51.3649C228.882 42.8626 220.039 33.34 211.877 33.34C203.035 33.34 193.852 42.1824 184.67 59.8671L177.868 72.7906C174.467 79.5925 163.924 93.8763 159.163 99.3178L162.564 102.719ZM98.9667 102.039L102.368 98.9777C94.2054 89.4552 85.3631 76.1916 76.1806 59.187C66.9981 41.8423 58.1557 33.34 49.9935 33.34C42.1714 33.34 32.9889 42.5225 32.9889 50.0045C32.9889 58.8469 41.8313 67.6893 59.5161 77.2118L72.0995 84.0137C85.023 90.8155 93.5253 97.6173 98.9667 102.039ZM131.275 164.956C149.981 164.956 164.604 150.332 164.604 131.627C164.604 112.921 149.981 97.6174 131.275 97.6174C112.57 97.6174 97.2663 112.921 97.2663 131.627C97.2663 150.332 112.57 164.956 131.275 164.956ZM18.365 148.291C23.1262 148.291 33.329 145.91 49.3133 141.149C65.2976 136.388 78.2211 134.007 87.7437 133.327V128.566C78.5612 127.886 61.5566 124.825 40.811 118.703C30.6083 115.642 23.1262 114.282 18.365 114.282C6.46175 114.282 0 120.744 0 131.286C0 142.169 6.80184 148.291 18.365 148.291ZM242.826 148.291C254.729 148.291 261.871 142.169 261.871 131.286C261.871 120.744 254.729 114.282 242.826 114.282C237.724 114.282 228.202 116.322 213.918 120.744C199.974 125.165 186.37 127.545 173.447 128.566V133.327C182.969 134.007 195.553 136.728 211.877 141.149C227.862 145.57 238.064 148.291 242.826 148.291ZM211.877 229.233C219.019 229.233 228.882 220.05 228.882 211.888C228.882 203.386 220.039 194.884 202.015 185.021L189.431 178.219C182.629 174.478 166.985 163.255 162.904 159.514L159.503 162.915C163.924 168.016 170.726 176.519 177.868 189.782L184.67 202.366C194.192 220.05 203.035 229.233 211.877 229.233ZM49.9935 229.233C58.4958 229.233 67.6783 220.391 76.8608 203.046L83.6626 190.122C87.0635 183.661 97.2663 168.016 101.687 163.255L98.6266 159.854C87.7437 168.697 78.9013 174.818 72.0995 178.559L59.5161 185.361C41.8313 194.884 32.9889 203.726 32.9889 212.568C32.9889 220.391 42.1714 229.233 49.9935 229.233ZM130.935 262.222C141.478 262.222 147.94 255.42 147.94 243.857C147.94 239.096 145.559 228.893 140.798 212.908C136.037 196.584 133.656 184.001 132.976 174.478H128.215C127.194 186.721 124.474 200.325 120.393 214.949C116.311 229.913 113.931 239.436 113.931 243.857C113.931 255.76 120.393 262.222 130.935 262.222Z" fill="#FA5F66"/>
</svg>
